<svg width="100" height="50" viewBox="0 0 100 50" fill="none" xmlns="http://www.w3.org/2000/svg">
<path fill-rule="evenodd" clip-rule="evenodd" d="M4.69162 43.946C-1.56396 37.7453 -1.56386 27.6922 4.69182 21.4916L21.6825 4.6505C26.9708 -0.591194 35.0366 -1.40186 41.184 2.21851C43.0854 3.33832 43.0688 5.90716 41.5049 7.45732C39.9409 9.00749 37.388 8.87408 35.2652 8.25867C32.5469 7.47063 29.49 8.13912 27.3461 10.2641L10.3553 27.1053C7.22749 30.2056 7.22745 35.2321 10.3552 38.3325C13.4831 41.4329 18.5545 41.4329 21.6824 38.3326L55.6634 4.65072C61.9191 -1.54991 72.0616 -1.54993 78.3174 4.65064L95.3081 21.4916C101.564 27.6922 101.564 37.7455 95.3082 43.9461C89.0525 50.1467 78.91 50.1467 72.6543 43.9461L66.9907 38.3324L59.9113 45.3495C54.623 50.5912 46.5572 51.4019 40.4098 47.7815C38.5084 46.6617 38.525 44.0928 40.0889 42.5427C41.6529 40.9925 44.2057 41.1259 46.3286 41.7413C49.0469 42.5294 52.1038 41.8609 54.2477 39.7359L61.5294 32.5183C64.5456 29.5287 69.4358 29.5287 72.4519 32.5183L78.3178 38.3325C81.4456 41.4328 86.5169 41.4328 89.6447 38.3325C92.7726 35.2322 92.7725 30.2055 89.6447 27.1053L72.6539 10.2643C69.526 7.16405 64.4548 7.16406 61.327 10.2644L27.3459 43.9462C21.0901 50.147 10.9473 50.1469 4.69162 43.946Z" fill="black"/>
</svg>
